<svg width="512" height="512" viewBox="0 0 512 512" fill="none" xmlns="http://www.w3.org/2000/svg">
<rect width="512" height="512" fill="#00182E"/>
<path d="M181.402 124.896L156 100.667H356L331.017 124.754C322.85 132.629 311.986 137.03 300.703 137.03H211.557C200.334 137.03 189.55 132.689 181.402 124.916V124.896Z" fill="#00BE6F"/>
<path d="M422.444 103.262L256 264.303L89.5556 103.262C83.7576 97.5997 74.1818 101.81 74.1818 110.024V400.646L97.5354 376.668C105.879 368.101 110.545 358.235 110.545 346.121V173.394L224.667 287.061C226.525 288.907 228.667 290.359 231.131 291.168V292.661C228.667 293.47 226.525 294.922 224.667 296.768L134.95 384.55C129.01 390.358 133.01 400.646 141.232 400.646H370.768C378.97 400.646 382.99 390.358 377.051 384.55L287.374 296.81C285.495 294.963 283.333 293.491 280.848 292.682V291.188C283.333 290.379 285.495 288.907 287.374 287.04L401.455 173.394V346.121C401.455 358.214 406.141 368.122 414.465 376.689L437.818 400.667V110.024C437.818 101.81 428.242 97.5997 422.444 103.262ZM301.455 364.303H210.545L256 318.849L301.455 364.303Z" fill="#00BE6F"/>
</svg>
